<svg width="640" height="68" viewBox="0 0 640 68" fill="none" xmlns="http://www.w3.org/2000/svg">
<g filter="url(#filter0_bi_89001_1594)">
<rect width="640" height="68" rx="8" fill="#0F0D23"/>
<g clip-path="url(#clip0_89001_1594)">
<path fill-rule="evenodd" clip-rule="evenodd" d="M21.875 32.125C21.875 28.6732 24.6732 25.875 28.125 25.875C31.5768 25.875 34.375 28.6732 34.375 32.125C34.375 35.5768 31.5768 38.375 28.125 38.375C24.6732 38.375 21.875 35.5768 21.875 32.125ZM28.125 24C23.6377 24 20 27.6377 20 32.125C20 36.6124 23.6377 40.25 28.125 40.25C30.0309 40.25 31.7835 39.5938 33.1691 38.495L37.4621 42.7879L38.125 43.4509L39.4509 42.125L38.7879 41.4621L34.495 37.1691C35.5938 35.7835 36.25 34.0309 36.25 32.125C36.25 27.6377 32.6124 24 28.125 24Z" fill="#AB8BFF"/>
</g>
<path d="M56.02 41.24C54.9933 41.24 54.1 41.0533 53.34 40.68C52.58 40.3067 51.9933 39.7867 51.58 39.12C51.1667 38.4533 50.96 37.68 50.96 36.8H52.72C52.72 37.3467 52.8467 37.8533 53.1 38.32C53.3533 38.7733 53.72 39.14 54.2 39.42C54.6933 39.6867 55.3 39.82 56.02 39.82C56.6467 39.82 57.18 39.72 57.62 39.52C58.0733 39.3067 58.4133 39.02 58.64 38.66C58.88 38.3 59 37.8933 59 37.44C59 36.9333 58.8867 36.5133 58.66 36.18C58.4467 35.8333 58.1467 35.5533 57.76 35.34C57.3733 35.1133 56.9267 34.9133 56.42 34.74C55.9133 34.5667 55.3667 34.3867 54.78 34.2C53.6067 33.8267 52.7533 33.36 52.22 32.8C51.7 32.2267 51.44 31.4933 51.44 30.6C51.44 29.84 51.6133 29.1733 51.96 28.6C52.32 28.0267 52.8267 27.58 53.48 27.26C54.1467 26.9267 54.9333 26.76 55.84 26.76C56.7333 26.76 57.5067 26.9267 58.16 27.26C58.8267 27.5933 59.3467 28.0533 59.72 28.64C60.0933 29.2133 60.28 29.88 60.28 30.64H58.52C58.52 30.2533 58.42 29.8733 58.22 29.5C58.02 29.1267 57.7133 28.82 57.3 28.58C56.9 28.3267 56.3933 28.2 55.78 28.2C55.2733 28.1867 54.82 28.2733 54.42 28.46C54.0333 28.6333 53.7267 28.8867 53.5 29.22C53.2867 29.5533 53.18 29.96 53.18 30.44C53.18 30.8933 53.2733 31.26 53.46 31.54C53.66 31.82 53.94 32.06 54.3 32.26C54.6733 32.4467 55.1067 32.62 55.6 32.78C56.0933 32.94 56.64 33.12 57.24 33.32C57.92 33.5467 58.52 33.8267 59.04 34.16C59.5733 34.48 59.9867 34.8933 60.28 35.4C60.5867 35.9067 60.74 36.5533 60.74 37.34C60.74 38.0067 60.56 38.64 60.2 39.24C59.8533 39.8267 59.3333 40.3067 58.64 40.68C57.9467 41.0533 57.0733 41.24 56.02 41.24ZM67.4988 41.24C66.5654 41.24 65.7388 41.0133 65.0188 40.56C64.2988 40.1067 63.7321 39.4667 63.3188 38.64C62.9188 37.8133 62.7188 36.8467 62.7188 35.74C62.7188 34.6333 62.9188 33.6667 63.3188 32.84C63.7321 32.0133 64.2988 31.3733 65.0188 30.92C65.7521 30.4667 66.5921 30.24 67.5388 30.24C68.5521 30.24 69.3988 30.4667 70.0788 30.92C70.7588 31.3733 71.2721 31.98 71.6188 32.74C71.9654 33.5 72.1388 34.3333 72.1388 35.24C72.1388 35.3733 72.1388 35.5067 72.1388 35.64C72.1388 35.7733 72.1321 35.9333 72.1188 36.12H63.9788V34.82H70.4988C70.4721 33.7933 70.1721 33.0133 69.5988 32.48C69.0388 31.9333 68.3388 31.66 67.4988 31.66C66.9388 31.66 66.4188 31.8 65.9388 32.08C65.4721 32.3467 65.0921 32.7467 64.7988 33.28C64.5054 33.8133 64.3587 34.48 64.3587 35.28V35.84C64.3587 36.72 64.5054 37.46 64.7988 38.06C65.0921 38.6467 65.4721 39.0867 65.9388 39.38C66.4188 39.6733 66.9388 39.82 67.4988 39.82C68.2454 39.82 68.8321 39.68 69.2588 39.4C69.6854 39.1067 69.9988 38.6933 70.1988 38.16H71.8588C71.6988 38.7467 71.4188 39.2733 71.0188 39.74C70.6321 40.2067 70.1388 40.5733 69.5388 40.84C68.9521 41.1067 68.2721 41.24 67.4988 41.24ZM77.7469 41.24C76.9469 41.24 76.2802 41.0933 75.7469 40.8C75.2135 40.4933 74.8135 40.0933 74.5469 39.6C74.2802 39.0933 74.1469 38.5533 74.1469 37.98C74.1469 37.2867 74.3202 36.7 74.6669 36.22C75.0269 35.7267 75.5269 35.3533 76.1669 35.1C76.8069 34.8467 77.5535 34.72 78.4069 34.72H81.0269C81.0269 34.04 80.9469 33.4733 80.7869 33.02C80.6269 32.5667 80.3669 32.2267 80.0069 32C79.6469 31.7733 79.1669 31.66 78.5669 31.66C77.9669 31.66 77.4535 31.8133 77.0269 32.12C76.6002 32.4133 76.3335 32.8533 76.2269 33.44H74.5069C74.5869 32.7467 74.8202 32.1667 75.2069 31.7C75.5935 31.22 76.0802 30.86 76.6669 30.62C77.2669 30.3667 77.9002 30.24 78.5669 30.24C79.5135 30.24 80.2935 30.4133 80.9069 30.76C81.5202 31.0933 81.9735 31.5667 82.2669 32.18C82.5602 32.78 82.7069 33.4933 82.7069 34.32V41H81.2069L81.1069 39.2C80.9735 39.48 80.8002 39.7467 80.5869 40C80.3869 40.24 80.1469 40.4533 79.8669 40.64C79.5869 40.8267 79.2669 40.9733 78.9069 41.08C78.5602 41.1867 78.1735 41.24 77.7469 41.24ZM77.9869 39.82C78.4269 39.82 78.8335 39.72 79.2069 39.52C79.5802 39.32 79.9002 39.0533 80.1669 38.72C80.4469 38.3733 80.6602 37.9867 80.8069 37.56C80.9535 37.1333 81.0269 36.6867 81.0269 36.22V36.02H78.5469C77.9202 36.02 77.4069 36.1 77.0069 36.26C76.6202 36.42 76.3402 36.6467 76.1669 36.94C75.9935 37.22 75.9069 37.54 75.9069 37.9C75.9069 38.2867 75.9869 38.6267 76.1469 38.92C76.3069 39.2 76.5402 39.42 76.8469 39.58C77.1669 39.74 77.5469 39.82 77.9869 39.82ZM85.4825 41V30.48H87.0025L87.1225 32.4C87.3625 31.92 87.6758 31.52 88.0625 31.2C88.4492 30.88 88.9158 30.64 89.4625 30.48C90.0225 30.32 90.6492 30.24 91.3425 30.24V32H90.3025C89.9025 32 89.5158 32.0533 89.1425 32.16C88.7692 32.2667 88.4292 32.44 88.1225 32.68C87.8292 32.92 87.5958 33.2467 87.4225 33.66C87.2492 34.0733 87.1625 34.5933 87.1625 35.22V41H85.4825ZM97.4444 41.24C96.4844 41.24 95.631 41.0133 94.8844 40.56C94.1377 40.0933 93.551 39.4467 93.1244 38.62C92.6977 37.7933 92.4844 36.8333 92.4844 35.74C92.4844 34.6333 92.6977 33.6733 93.1244 32.86C93.551 32.0333 94.1377 31.3933 94.8844 30.94C95.631 30.4733 96.4844 30.24 97.4444 30.24C98.6444 30.24 99.6444 30.56 100.444 31.2C101.258 31.84 101.778 32.7 102.004 33.78H100.284C100.138 33.1133 99.7977 32.6 99.2644 32.24C98.7444 31.8667 98.131 31.68 97.4244 31.68C96.811 31.68 96.2577 31.8333 95.7644 32.14C95.2844 32.4467 94.9044 32.9 94.6244 33.5C94.3444 34.1 94.2044 34.8467 94.2044 35.74C94.2044 36.4067 94.2844 37 94.4444 37.52C94.6044 38.0267 94.8244 38.4533 95.1044 38.8C95.3977 39.1333 95.7377 39.3867 96.1244 39.56C96.5244 39.7333 96.9577 39.82 97.4244 39.82C97.9044 39.82 98.3377 39.74 98.7244 39.58C99.1244 39.4067 99.4577 39.16 99.7244 38.84C100.004 38.52 100.191 38.14 100.284 37.7H102.004C101.791 38.7533 101.271 39.6067 100.444 40.26C99.631 40.9133 98.631 41.24 97.4444 41.24ZM104.447 41V26.6H106.127V32.18C106.474 31.58 106.947 31.1067 107.547 30.76C108.147 30.4133 108.794 30.24 109.487 30.24C110.301 30.24 110.987 30.3933 111.547 30.7C112.121 30.9933 112.554 31.4467 112.847 32.06C113.154 32.6733 113.307 33.4533 113.307 34.4V41H111.647V34.58C111.647 33.62 111.421 32.9 110.967 32.42C110.514 31.9267 109.901 31.68 109.127 31.68C108.581 31.68 108.081 31.8133 107.627 32.08C107.174 32.3333 106.807 32.7133 106.527 33.22C106.261 33.7267 106.127 34.34 106.127 35.06V41H104.447ZM125.539 41C124.939 41 124.419 40.9067 123.979 40.72C123.539 40.5333 123.199 40.22 122.959 39.78C122.732 39.3267 122.619 38.72 122.619 37.96V31.9H120.779V30.48H122.619L122.839 27.86H124.299V30.48H127.279V31.9H124.299V37.96C124.299 38.5867 124.426 39.0133 124.679 39.24C124.932 39.4533 125.379 39.56 126.019 39.56H127.239V41H125.539ZM129.584 41V26.6H131.264V32.18C131.611 31.58 132.084 31.1067 132.684 30.76C133.284 30.4133 133.931 30.24 134.624 30.24C135.437 30.24 136.124 30.3933 136.684 30.7C137.257 30.9933 137.691 31.4467 137.984 32.06C138.291 32.6733 138.444 33.4533 138.444 34.4V41H136.784V34.58C136.784 33.62 136.557 32.9 136.104 32.42C135.651 31.9267 135.037 31.68 134.264 31.68C133.717 31.68 133.217 31.8133 132.764 32.08C132.311 32.3333 131.944 32.7133 131.664 33.22C131.397 33.7267 131.264 34.34 131.264 35.06V41H129.584ZM141.225 41V30.48H142.745L142.865 32.4C143.105 31.92 143.418 31.52 143.805 31.2C144.191 30.88 144.658 30.64 145.205 30.48C145.765 30.32 146.391 30.24 147.085 30.24V32H146.045C145.645 32 145.258 32.0533 144.885 32.16C144.511 32.2667 144.171 32.44 143.865 32.68C143.571 32.92 143.338 33.2467 143.165 33.66C142.991 34.0733 142.905 34.5933 142.905 35.22V41H141.225ZM153.167 41.24C152.193 41.24 151.333 41.0133 150.587 40.56C149.84 40.1067 149.26 39.4667 148.847 38.64C148.433 37.8133 148.227 36.8467 148.227 35.74C148.227 34.62 148.433 33.6533 148.847 32.84C149.273 32.0133 149.86 31.3733 150.607 30.92C151.367 30.4667 152.233 30.24 153.207 30.24C154.193 30.24 155.053 30.4667 155.787 30.92C156.533 31.3733 157.113 32.0133 157.527 32.84C157.94 33.6533 158.147 34.62 158.147 35.74C158.147 36.8467 157.933 37.8133 157.507 38.64C157.093 39.4667 156.513 40.1067 155.767 40.56C155.02 41.0133 154.153 41.24 153.167 41.24ZM153.167 39.8C153.78 39.8 154.333 39.6533 154.827 39.36C155.32 39.0533 155.707 38.6 155.987 38C156.28 37.3867 156.427 36.6333 156.427 35.74C156.427 34.8333 156.287 34.08 156.007 33.48C155.727 32.88 155.34 32.4333 154.847 32.14C154.367 31.8333 153.82 31.68 153.207 31.68C152.607 31.68 152.06 31.8333 151.567 32.14C151.073 32.4333 150.68 32.88 150.387 33.48C150.093 34.08 149.947 34.8333 149.947 35.74C149.947 36.6333 150.087 37.3867 150.367 38C150.66 38.6 151.047 39.0533 151.527 39.36C152.02 39.6533 152.567 39.8 153.167 39.8ZM164.36 41.24C163.587 41.24 162.913 41.0933 162.34 40.8C161.767 40.5067 161.32 40.06 161 39.46C160.68 38.8467 160.52 38.0867 160.52 37.18V30.48H162.2V37C162.2 37.9333 162.427 38.6333 162.88 39.1C163.347 39.5667 163.967 39.8 164.74 39.8C165.273 39.8 165.753 39.68 166.18 39.44C166.607 39.1867 166.947 38.82 167.2 38.34C167.467 37.86 167.6 37.2733 167.6 36.58V30.48H169.28V41H167.76L167.66 39.32C167.38 39.9333 166.947 40.4067 166.36 40.74C165.787 41.0733 165.12 41.24 164.36 41.24ZM176.243 45.64C175.296 45.64 174.463 45.52 173.743 45.28C173.036 45.0533 172.483 44.7 172.083 44.22C171.696 43.74 171.503 43.1467 171.503 42.44C171.503 42.1067 171.563 41.76 171.683 41.4C171.816 41.04 172.036 40.6933 172.343 40.36C172.663 40.0267 173.11 39.7267 173.683 39.46L174.963 40.14C174.203 40.4333 173.71 40.7733 173.483 41.16C173.256 41.5467 173.143 41.92 173.143 42.28C173.143 42.72 173.27 43.0867 173.523 43.38C173.79 43.6733 174.156 43.8933 174.623 44.04C175.09 44.1867 175.63 44.26 176.243 44.26C176.843 44.26 177.356 44.18 177.783 44.02C178.223 43.8733 178.556 43.6533 178.783 43.36C179.023 43.08 179.143 42.7467 179.143 42.36C179.143 41.8 178.963 41.36 178.603 41.04C178.243 40.7333 177.543 40.5533 176.503 40.5C175.69 40.4467 175.01 40.3733 174.463 40.28C173.916 40.1867 173.463 40.08 173.103 39.96C172.756 39.8267 172.463 39.68 172.223 39.52C171.996 39.36 171.79 39.1933 171.603 39.02V38.56L173.583 36.66L175.163 37.18L173.003 38.96L173.263 38.2C173.41 38.3067 173.55 38.4067 173.683 38.5C173.816 38.5933 173.996 38.68 174.223 38.76C174.463 38.8267 174.79 38.8933 175.203 38.96C175.63 39.0267 176.19 39.0867 176.883 39.14C177.843 39.2067 178.61 39.3667 179.183 39.62C179.756 39.8733 180.17 40.2267 180.423 40.68C180.676 41.12 180.803 41.66 180.803 42.3C180.803 42.86 180.643 43.3933 180.323 43.9C180.016 44.4067 179.523 44.82 178.843 45.14C178.176 45.4733 177.31 45.64 176.243 45.64ZM176.223 37.72C175.37 37.72 174.643 37.56 174.043 37.24C173.456 36.9067 173.01 36.46 172.703 35.9C172.396 35.3267 172.243 34.6867 172.243 33.98C172.243 33.2733 172.396 32.64 172.703 32.08C173.023 31.52 173.476 31.0733 174.063 30.74C174.663 30.4067 175.383 30.24 176.223 30.24C177.09 30.24 177.816 30.4067 178.403 30.74C178.99 31.0733 179.436 31.52 179.743 32.08C180.05 32.64 180.203 33.2733 180.203 33.98C180.203 34.6867 180.05 35.3267 179.743 35.9C179.436 36.46 178.99 36.9067 178.403 37.24C177.816 37.56 177.09 37.72 176.223 37.72ZM176.223 36.34C176.97 36.34 177.55 36.1467 177.963 35.76C178.376 35.36 178.583 34.7667 178.583 33.98C178.583 33.1933 178.376 32.6067 177.963 32.22C177.55 31.8333 176.97 31.64 176.223 31.64C175.516 31.64 174.936 31.8333 174.483 32.22C174.043 32.6067 173.823 33.1933 173.823 33.98C173.823 34.7667 174.036 35.36 174.463 35.76C174.903 36.1467 175.49 36.34 176.223 36.34ZM177.983 31.9L177.483 30.48H181.603V31.74L177.983 31.9ZM183.627 41V26.6H185.307V32.18C185.654 31.58 186.127 31.1067 186.727 30.76C187.327 30.4133 187.974 30.24 188.667 30.24C189.48 30.24 190.167 30.3933 190.727 30.7C191.3 30.9933 191.734 31.4467 192.027 32.06C192.334 32.6733 192.487 33.4533 192.487 34.4V41H190.827V34.58C190.827 33.62 190.6 32.9 190.147 32.42C189.694 31.9267 189.08 31.68 188.307 31.68C187.76 31.68 187.26 31.8133 186.807 32.08C186.354 32.3333 185.987 32.7133 185.707 33.22C185.44 33.7267 185.307 34.34 185.307 35.06V41H183.627ZM205.159 41.24C204.265 41.24 203.452 41.08 202.719 40.76C201.999 40.4267 201.425 39.9333 200.999 39.28C200.572 38.6267 200.345 37.8133 200.319 36.84H202.019C202.032 37.3733 202.159 37.8667 202.399 38.32C202.652 38.76 203.012 39.1133 203.479 39.38C203.945 39.6467 204.505 39.78 205.159 39.78C205.812 39.78 206.359 39.6533 206.799 39.4C207.239 39.1467 207.572 38.8133 207.799 38.4C208.025 37.9733 208.139 37.5 208.139 36.98C208.139 36.3533 207.979 35.8467 207.659 35.46C207.352 35.06 206.932 34.7667 206.399 34.58C205.879 34.38 205.305 34.28 204.679 34.28H203.639V32.86H204.679C205.625 32.86 206.365 32.6467 206.899 32.22C207.445 31.78 207.719 31.1733 207.719 30.4C207.719 29.7733 207.505 29.2533 207.079 28.84C206.652 28.4267 206.012 28.22 205.159 28.22C204.319 28.22 203.659 28.4467 203.179 28.9C202.699 29.3533 202.425 29.9333 202.359 30.64H200.659C200.699 29.88 200.905 29.2067 201.279 28.62C201.665 28.0333 202.185 27.58 202.839 27.26C203.505 26.9267 204.279 26.76 205.159 26.76C206.092 26.76 206.872 26.92 207.499 27.24C208.139 27.56 208.619 27.9867 208.939 28.52C209.259 29.0533 209.419 29.6467 209.419 30.3C209.419 30.78 209.325 31.24 209.139 31.68C208.965 32.12 208.699 32.5 208.339 32.82C207.979 33.14 207.519 33.3667 206.959 33.5C207.505 33.6067 207.992 33.8133 208.419 34.12C208.859 34.4267 209.205 34.82 209.459 35.3C209.712 35.78 209.839 36.34 209.839 36.98C209.839 37.74 209.659 38.4467 209.299 39.1C208.952 39.74 208.432 40.26 207.739 40.66C207.045 41.0467 206.185 41.24 205.159 41.24ZM217.752 41.24C216.592 41.24 215.592 40.94 214.752 40.34C213.925 39.7267 213.285 38.88 212.832 37.8C212.379 36.7067 212.152 35.44 212.152 34C212.152 32.56 212.379 31.3 212.832 30.22C213.285 29.1267 213.925 28.28 214.752 27.68C215.592 27.0667 216.592 26.76 217.752 26.76C218.912 26.76 219.905 27.0667 220.732 27.68C221.559 28.28 222.192 29.1267 222.632 30.22C223.085 31.3 223.312 32.56 223.312 34C223.312 35.44 223.085 36.7067 222.632 37.8C222.192 38.88 221.559 39.7267 220.732 40.34C219.905 40.94 218.912 41.24 217.752 41.24ZM217.752 39.76C218.485 39.76 219.139 39.5333 219.712 39.08C220.285 38.6133 220.739 37.9533 221.072 37.1C221.419 36.2333 221.592 35.2 221.592 34C221.592 32.7867 221.419 31.7533 221.072 30.9C220.739 30.0467 220.285 29.3933 219.712 28.94C219.139 28.4867 218.485 28.26 217.752 28.26C217.005 28.26 216.339 28.4867 215.752 28.94C215.165 29.3933 214.705 30.0467 214.372 30.9C214.039 31.7533 213.872 32.7867 213.872 34C213.872 35.2 214.039 36.2333 214.372 37.1C214.705 37.9533 215.165 38.6133 215.752 39.08C216.339 39.5333 217.005 39.76 217.752 39.76ZM230.877 41.24C229.717 41.24 228.717 40.94 227.877 40.34C227.05 39.7267 226.41 38.88 225.957 37.8C225.504 36.7067 225.277 35.44 225.277 34C225.277 32.56 225.504 31.3 225.957 30.22C226.41 29.1267 227.05 28.28 227.877 27.68C228.717 27.0667 229.717 26.76 230.877 26.76C232.037 26.76 233.03 27.0667 233.857 27.68C234.684 28.28 235.317 29.1267 235.757 30.22C236.21 31.3 236.437 32.56 236.437 34C236.437 35.44 236.21 36.7067 235.757 37.8C235.317 38.88 234.684 39.7267 233.857 40.34C233.03 40.94 232.037 41.24 230.877 41.24ZM230.877 39.76C231.61 39.76 232.264 39.5333 232.837 39.08C233.41 38.6133 233.864 37.9533 234.197 37.1C234.544 36.2333 234.717 35.2 234.717 34C234.717 32.7867 234.544 31.7533 234.197 30.9C233.864 30.0467 233.41 29.3933 232.837 28.94C232.264 28.4867 231.61 28.26 230.877 28.26C230.13 28.26 229.464 28.4867 228.877 28.94C228.29 29.3933 227.83 30.0467 227.497 30.9C227.164 31.7533 226.997 32.7867 226.997 34C226.997 35.2 227.164 36.2333 227.497 37.1C227.83 37.9533 228.29 38.6133 228.877 39.08C229.464 39.5333 230.13 39.76 230.877 39.76ZM242.142 39.56V30.84H243.662V39.56H242.142ZM238.342 35.9V34.48H247.482V35.9H238.342ZM255.209 41V30.48H256.729L256.809 31.92C257.129 31.4 257.562 30.9933 258.109 30.7C258.656 30.3933 259.229 30.24 259.829 30.24C260.336 30.24 260.789 30.3133 261.189 30.46C261.602 30.5933 261.962 30.8067 262.269 31.1C262.576 31.38 262.822 31.7333 263.009 32.16C263.356 31.5333 263.822 31.06 264.409 30.74C265.009 30.4067 265.636 30.24 266.289 30.24C267.062 30.24 267.722 30.3933 268.269 30.7C268.829 30.9933 269.256 31.4467 269.549 32.06C269.856 32.66 270.009 33.4133 270.009 34.32V41H268.349V34.5C268.349 33.5533 268.142 32.8467 267.729 32.38C267.316 31.9133 266.756 31.68 266.049 31.68C265.569 31.68 265.129 31.8067 264.729 32.06C264.342 32.3133 264.029 32.6867 263.789 33.18C263.562 33.6733 263.449 34.2733 263.449 34.98V41H261.769V34.5C261.769 33.5533 261.562 32.8467 261.149 32.38C260.736 31.9133 260.182 31.68 259.489 31.68C259.022 31.68 258.589 31.8067 258.189 32.06C257.802 32.3133 257.489 32.6867 257.249 33.18C257.009 33.6733 256.889 34.2733 256.889 34.98V41H255.209ZM277.307 41.24C276.334 41.24 275.474 41.0133 274.727 40.56C273.981 40.1067 273.401 39.4667 272.987 38.64C272.574 37.8133 272.367 36.8467 272.367 35.74C272.367 34.62 272.574 33.6533 272.987 32.84C273.414 32.0133 274.001 31.3733 274.747 30.92C275.507 30.4667 276.374 30.24 277.347 30.24C278.334 30.24 279.194 30.4667 279.927 30.92C280.674 31.3733 281.254 32.0133 281.667 32.84C282.081 33.6533 282.287 34.62 282.287 35.74C282.287 36.8467 282.074 37.8133 281.647 38.64C281.234 39.4667 280.654 40.1067 279.907 40.56C279.161 41.0133 278.294 41.24 277.307 41.24ZM277.307 39.8C277.921 39.8 278.474 39.6533 278.967 39.36C279.461 39.0533 279.847 38.6 280.127 38C280.421 37.3867 280.567 36.6333 280.567 35.74C280.567 34.8333 280.427 34.08 280.147 33.48C279.867 32.88 279.481 32.4333 278.987 32.14C278.507 31.8333 277.961 31.68 277.347 31.68C276.747 31.68 276.201 31.8333 275.707 32.14C275.214 32.4333 274.821 32.88 274.527 33.48C274.234 34.08 274.087 34.8333 274.087 35.74C274.087 36.6333 274.227 37.3867 274.507 38C274.801 38.6 275.187 39.0533 275.667 39.36C276.161 39.6533 276.707 39.8 277.307 39.8ZM287.273 41L283.273 30.48H285.053L288.253 39.38L291.473 30.48H293.193L289.213 41H287.273ZM295.252 41V30.48H296.932V41H295.252ZM296.092 28.48C295.759 28.48 295.479 28.3733 295.252 28.16C295.039 27.9333 294.932 27.6533 294.932 27.32C294.932 26.9867 295.039 26.72 295.252 26.52C295.479 26.3067 295.759 26.2 296.092 26.2C296.412 26.2 296.685 26.3067 296.912 26.52C297.139 26.72 297.252 26.9867 297.252 27.32C297.252 27.6533 297.139 27.9333 296.912 28.16C296.685 28.3733 296.412 28.48 296.092 28.48ZM304.276 41.24C303.343 41.24 302.516 41.0133 301.796 40.56C301.076 40.1067 300.509 39.4667 300.096 38.64C299.696 37.8133 299.496 36.8467 299.496 35.74C299.496 34.6333 299.696 33.6667 300.096 32.84C300.509 32.0133 301.076 31.3733 301.796 30.92C302.529 30.4667 303.369 30.24 304.316 30.24C305.329 30.24 306.176 30.4667 306.856 30.92C307.536 31.3733 308.049 31.98 308.396 32.74C308.743 33.5 308.916 34.3333 308.916 35.24C308.916 35.3733 308.916 35.5067 308.916 35.64C308.916 35.7733 308.909 35.9333 308.896 36.12H300.756V34.82H307.276C307.249 33.7933 306.949 33.0133 306.376 32.48C305.816 31.9333 305.116 31.66 304.276 31.66C303.716 31.66 303.196 31.8 302.716 32.08C302.249 32.3467 301.869 32.7467 301.576 33.28C301.283 33.8133 301.136 34.48 301.136 35.28V35.84C301.136 36.72 301.283 37.46 301.576 38.06C301.869 38.6467 302.249 39.0867 302.716 39.38C303.196 39.6733 303.716 39.82 304.276 39.82C305.023 39.82 305.609 39.68 306.036 39.4C306.463 39.1067 306.776 38.6933 306.976 38.16H308.636C308.476 38.7467 308.196 39.2733 307.796 39.74C307.409 40.2067 306.916 40.5733 306.316 40.84C305.729 41.1067 305.049 41.24 304.276 41.24ZM315.044 41.24C314.098 41.24 313.311 41.1 312.684 40.82C312.071 40.5267 311.604 40.1267 311.284 39.62C310.964 39.1 310.771 38.5 310.704 37.82H312.424C312.478 38.18 312.598 38.5133 312.784 38.82C312.984 39.1133 313.271 39.3533 313.644 39.54C314.018 39.7267 314.491 39.82 315.064 39.82C315.518 39.82 315.904 39.7533 316.224 39.62C316.544 39.4733 316.784 39.2733 316.944 39.02C317.118 38.7667 317.204 38.4733 317.204 38.14C317.204 37.7 317.104 37.36 316.904 37.12C316.718 36.8667 316.438 36.68 316.064 36.56C315.704 36.4267 315.251 36.3267 314.704 36.26C314.118 36.18 313.598 36.0667 313.144 35.92C312.691 35.7733 312.304 35.58 311.984 35.34C311.678 35.1 311.444 34.8 311.284 34.44C311.124 34.08 311.044 33.6533 311.044 33.16C311.044 32.5867 311.198 32.08 311.504 31.64C311.811 31.2 312.244 30.86 312.804 30.62C313.378 30.3667 314.051 30.24 314.824 30.24C315.958 30.24 316.851 30.5 317.504 31.02C318.171 31.54 318.564 32.28 318.684 33.24H317.024C316.958 32.7467 316.731 32.36 316.344 32.08C315.958 31.8 315.444 31.66 314.804 31.66C314.124 31.66 313.611 31.7867 313.264 32.04C312.918 32.2933 312.744 32.6267 312.744 33.04C312.744 33.3467 312.818 33.6267 312.964 33.88C313.124 34.12 313.391 34.3267 313.764 34.5C314.138 34.66 314.638 34.78 315.264 34.86C316.051 34.9533 316.718 35.1067 317.264 35.32C317.811 35.52 318.224 35.8333 318.504 36.26C318.798 36.6867 318.938 37.2667 318.924 38C318.924 38.6933 318.758 39.28 318.424 39.76C318.104 40.24 317.651 40.6067 317.064 40.86C316.491 41.1133 315.818 41.24 315.044 41.24ZM331.311 41.24C330.338 41.24 329.478 41.0133 328.731 40.56C327.984 40.1067 327.404 39.4667 326.991 38.64C326.578 37.8133 326.371 36.8467 326.371 35.74C326.371 34.62 326.578 33.6533 326.991 32.84C327.418 32.0133 328.004 31.3733 328.751 30.92C329.511 30.4667 330.378 30.24 331.351 30.24C332.338 30.24 333.198 30.4667 333.931 30.92C334.678 31.3733 335.258 32.0133 335.671 32.84C336.084 33.6533 336.291 34.62 336.291 35.74C336.291 36.8467 336.078 37.8133 335.651 38.64C335.238 39.4667 334.658 40.1067 333.911 40.56C333.164 41.0133 332.298 41.24 331.311 41.24ZM331.311 39.8C331.924 39.8 332.478 39.6533 332.971 39.36C333.464 39.0533 333.851 38.6 334.131 38C334.424 37.3867 334.571 36.6333 334.571 35.74C334.571 34.8333 334.431 34.08 334.151 33.48C333.871 32.88 333.484 32.4333 332.991 32.14C332.511 31.8333 331.964 31.68 331.351 31.68C330.751 31.68 330.204 31.8333 329.711 32.14C329.218 32.4333 328.824 32.88 328.531 33.48C328.238 34.08 328.091 34.8333 328.091 35.74C328.091 36.6333 328.231 37.3867 328.511 38C328.804 38.6 329.191 39.0533 329.671 39.36C330.164 39.6533 330.711 39.8 331.311 39.8ZM338.725 41V30.48H340.245L340.325 32.14C340.631 31.54 341.071 31.0733 341.645 30.74C342.231 30.4067 342.905 30.24 343.665 30.24C344.438 30.24 345.111 30.3867 345.685 30.68C346.258 30.9733 346.705 31.42 347.025 32.02C347.345 32.62 347.505 33.38 347.505 34.3V41H345.825V34.48C345.825 33.5467 345.591 32.8467 345.125 32.38C344.671 31.9133 344.058 31.68 343.285 31.68C342.765 31.68 342.285 31.8067 341.845 32.06C341.405 32.3 341.051 32.66 340.785 33.14C340.531 33.62 340.405 34.2067 340.405 34.9V41H338.725ZM350.287 41V26.6H351.967V41H350.287ZM354.959 41V30.48H356.639V41H354.959ZM355.799 28.48C355.466 28.48 355.186 28.3733 354.959 28.16C354.746 27.9333 354.639 27.6533 354.639 27.32C354.639 26.9867 354.746 26.72 354.959 26.52C355.186 26.3067 355.466 26.2 355.799 26.2C356.119 26.2 356.392 26.3067 356.619 26.52C356.846 26.72 356.959 26.9867 356.959 27.32C356.959 27.6533 356.846 27.9333 356.619 28.16C356.392 28.3733 356.119 28.48 355.799 28.48ZM359.623 41V30.48H361.143L361.223 32.14C361.53 31.54 361.97 31.0733 362.543 30.74C363.13 30.4067 363.803 30.24 364.563 30.24C365.336 30.24 366.01 30.3867 366.583 30.68C367.156 30.9733 367.603 31.42 367.923 32.02C368.243 32.62 368.403 33.38 368.403 34.3V41H366.723V34.48C366.723 33.5467 366.49 32.8467 366.023 32.38C365.57 31.9133 364.956 31.68 364.183 31.68C363.663 31.68 363.183 31.8067 362.743 32.06C362.303 32.3 361.95 32.66 361.683 33.14C361.43 33.62 361.303 34.2067 361.303 34.9V41H359.623ZM375.546 41.24C374.612 41.24 373.786 41.0133 373.066 40.56C372.346 40.1067 371.779 39.4667 371.366 38.64C370.966 37.8133 370.766 36.8467 370.766 35.74C370.766 34.6333 370.966 33.6667 371.366 32.84C371.779 32.0133 372.346 31.3733 373.066 30.92C373.799 30.4667 374.639 30.24 375.586 30.24C376.599 30.24 377.446 30.4667 378.126 30.92C378.806 31.3733 379.319 31.98 379.666 32.74C380.012 33.5 380.186 34.3333 380.186 35.24C380.186 35.3733 380.186 35.5067 380.186 35.64C380.186 35.7733 380.179 35.9333 380.166 36.12H372.026V34.82H378.546C378.519 33.7933 378.219 33.0133 377.646 32.48C377.086 31.9333 376.386 31.66 375.546 31.66C374.986 31.66 374.466 31.8 373.986 32.08C373.519 32.3467 373.139 32.7467 372.846 33.28C372.552 33.8133 372.406 34.48 372.406 35.28V35.84C372.406 36.72 372.552 37.46 372.846 38.06C373.139 38.6467 373.519 39.0867 373.986 39.38C374.466 39.6733 374.986 39.82 375.546 39.82C376.292 39.82 376.879 39.68 377.306 39.4C377.732 39.1067 378.046 38.6933 378.246 38.16H379.906C379.746 38.7467 379.466 39.2733 379.066 39.74C378.679 40.2067 378.186 40.5733 377.586 40.84C376.999 41.1067 376.319 41.24 375.546 41.24Z" fill="#A8B5DB"/>
</g>
<defs>
<filter id="filter0_bi_89001_1594" x="-16" y="-16" width="672" height="100" filterUnits="userSpaceOnUse" color-interpolation-filters="sRGB">
<feFlood flood-opacity="0" result="BackgroundImageFix"/>
<feGaussianBlur in="BackgroundImageFix" stdDeviation="8"/>
<feComposite in2="SourceAlpha" operator="in" result="effect1_backgroundBlur_89001_1594"/>
<feBlend mode="normal" in="SourceGraphic" in2="effect1_backgroundBlur_89001_1594" result="shape"/>
<feColorMatrix in="SourceAlpha" type="matrix" values="0 0 0 0 0 0 0 0 0 0 0 0 0 0 0 0 0 0 127 0" result="hardAlpha"/>
<feOffset dy="12"/>
<feGaussianBlur stdDeviation="16"/>
<feComposite in2="hardAlpha" operator="arithmetic" k2="-1" k3="1"/>
<feColorMatrix type="matrix" values="0 0 0 0 0.807843 0 0 0 0 0.807843 0 0 0 0 0.984314 0 0 0 0.02 0"/>
<feBlend mode="normal" in2="shape" result="effect2_innerShadow_89001_1594"/>
</filter>
<clipPath id="clip0_89001_1594">
<rect width="20" height="20" fill="white" transform="translate(20 24)"/>
</clipPath>
</defs>
</svg>
